# xmcd
#
# Track frame offsets:
#	225
#	16070
#	30085
#	42945
#	62716
#	80178
#	100516
#	122069
#	135746
#	156878
#	174037
#	194155
#	214695
#	230250
#	244646
#	261057
#	276164
#	292810
#	310074
#	326255
#
# Disc length: 4622 seconds
#
# Revision: 0
# Processed by: cddbd v1.5.1PL0 Copyright (c) Steve Scherf et al.
# Submitted via: audiograbber 1.83.01
#
DISCID=05120b14
DTITLE=Various Artist - Танцевальный суперхит. Выпуск 4. (2001)
DYEAR=1900
DGENRE=
TTITLE0=Antique. - Opa Opa.
TTITLE1=Pizza Boys. - Oh Le Le.
TTITLE2=Billy More. - The New Millennium Girl.
TTITLE3=Vicky Lee. - Sing Love.
TTITLE4=F Lovely Affair. - My Heart Beats Like A Drum.
TTITLE5=Tr. 808. - I Saved The World Today.
TTITLE6=R.A.M. - Dancing In The Moonlight.
TTITLE7=Fancy. - Na Na Na Na Hey Hey Hey Kiss Him Goodbay.
TTITLE8=Sheldon. - Never Be The Same Again.
TTITLE9=Silent Circle feat. MMX. - Moonlight Affair.
TTITLE10=Romeo. - Tell Me.
TTITLE11=Gigi D'Agostino. - Another Way.
TTITLE12=Noname. - Off.
TTITLE13=Raffa. - Don't Tell Me.
TTITLE14=Snappers. - Celebrate Our Love.
TTITLE15=Helen. - Stronger.
TTITLE16=TK. - If You Had My Love.
TTITLE17=Sheeba. - Kung Fu Fighting.
TTITLE18=Moorhuhm. - Hands Up.
TTITLE19=Bora Bora. - Viva La Fiesta.
EXTD=
EXTT0=
EXTT1=
EXTT2=
EXTT3=
EXTT4=
EXTT5=
EXTT6=
EXTT7=
EXTT8=
EXTT9=
EXTT10=
EXTT11=
EXTT12=
EXTT13=
EXTT14=
EXTT15=
EXTT16=
EXTT17=
EXTT18=
EXTT19=
PLAYORDER=
